<mxfile host="app.diagrams.net" modified="2022-10-19T03:18:50.189Z" agent="5.0 (Windows NT 10.0; Win64; x64) AppleWebKit/537.36 (KHTML, like Gecko) Chrome/106.0.0.0 Safari/537.36 Edg/106.0.1370.47" etag="uGF2D2qHt0vQe7CIQz_h" version="20.3.6" type="github">
  <diagram id="O28qBkK3pF0bgLv4EBwH" name="第 1 页">
    <mxGraphModel dx="1182" dy="574" grid="1" gridSize="10" guides="1" tooltips="1" connect="1" arrows="1" fold="1" page="1" pageScale="1" pageWidth="827" pageHeight="1169" math="0" shadow="0">
      <root>
        <mxCell id="0" />
        <mxCell id="1" parent="0" />
        <mxCell id="pnHCCyEthN8mYyZjzj5B-1" value="检测开始" style="rounded=1;whiteSpace=wrap;html=1;" vertex="1" parent="1">
          <mxGeometry x="130" y="70" width="120" height="60" as="geometry" />
        </mxCell>
      </root>
    </mxGraphModel>
  </diagram>
</mxfile>
